<svg width="178" height="23" viewBox="0 0 178 23" fill="none" xmlns="http://www.w3.org/2000/svg">
<path d="M6.3916 1.5625C6.86556 1.5625 7.27181 1.72331 7.61035 2.04492C7.94889 2.34961 8.12663 2.73893 8.14355 3.21289V5.42188H16.7764C17.2503 5.42188 17.6566 5.58268 17.9951 5.9043C18.3167 6.24284 18.4775 6.64909 18.4775 7.12305C18.4775 7.59701 18.3083 8.00326 17.9697 8.3418C17.6481 8.66341 17.2503 8.82422 16.7764 8.82422H8.14355V9.33203C8.12663 10.026 8.16895 10.6693 8.27051 11.2617C8.389 11.8372 8.65983 12.3535 9.08301 12.8105C9.50618 13.2676 10.0394 13.513 10.6826 13.5469H16.8779C17.3519 13.5638 17.7412 13.7415 18.0459 14.0801C18.3675 14.4186 18.5283 14.8249 18.5283 15.2988C18.5114 15.7559 18.3421 16.1452 18.0205 16.4668C17.7158 16.7715 17.335 16.9323 16.8779 16.9492H9.81934C8.63444 16.8815 7.65267 16.4837 6.87402 15.7559C6.1123 15.0111 5.56217 14.1055 5.22363 13.0391C4.90202 11.9727 4.73275 10.8385 4.71582 9.63672V8.82422H1.7959C1.32194 8.82422 0.924154 8.65495 0.602539 8.31641C0.263997 7.99479 0.0947266 7.59701 0.0947266 7.12305C0.0947266 6.64909 0.255534 6.2513 0.577148 5.92969C0.91569 5.59115 1.32194 5.42188 1.7959 5.42188H4.71582V3.21289C4.73275 2.75586 4.90202 2.375 5.22363 2.07031C5.54525 1.7487 5.93457 1.57943 6.3916 1.5625ZM26.2217 16.9492C24.7321 16.8984 23.6064 16.5514 22.8447 15.9082C22.083 15.248 21.5329 14.5117 21.1943 13.6992C20.8558 12.8698 20.6865 12.0319 20.6865 11.1855C20.6865 10.3053 20.8473 9.45898 21.1689 8.64648C21.5075 7.81706 22.0576 7.08073 22.8193 6.4375C23.598 5.77734 24.5798 5.4388 25.7646 5.42188H33.9912C35.1761 5.4388 36.1494 5.77734 36.9111 6.4375C37.6898 7.08073 38.2399 7.81706 38.5615 8.64648C38.9001 9.45898 39.0693 10.3053 39.0693 11.1855C39.0693 12.0319 38.9001 12.8698 38.5615 13.6992C38.223 14.5117 37.6729 15.248 36.9111 15.9082C36.1494 16.5514 35.0238 16.8984 33.5342 16.9492H26.2217ZM25.6631 8.82422C25.3415 8.82422 25.0622 8.95964 24.8252 9.23047C24.5882 9.48438 24.4105 9.78906 24.292 10.1445C24.1904 10.4831 24.1396 10.8216 24.1396 11.1602C24.1396 11.5156 24.1904 11.8711 24.292 12.2266C24.4105 12.5651 24.5882 12.8698 24.8252 13.1406C25.0622 13.3945 25.3415 13.5299 25.6631 13.5469H34.0928C34.4144 13.5299 34.6937 13.3945 34.9307 13.1406C35.1676 12.8698 35.3369 12.5651 35.4385 12.2266C35.557 11.8711 35.6162 11.5156 35.6162 11.1602C35.6162 10.8216 35.557 10.4831 35.4385 10.1445C35.3369 9.78906 35.1676 9.48438 34.9307 9.23047C34.6937 8.95964 34.4144 8.82422 34.0928 8.82422H25.6631ZM50.0889 17.3809C49.2087 17.3809 48.3369 17.2793 47.4736 17.0762C46.6273 16.873 45.8148 16.5768 45.0361 16.1875C44.2575 15.7812 43.5719 15.248 42.9795 14.5879C42.387 13.9277 42.0654 13.1406 42.0146 12.2266V11.1602V6.81836C42.0146 6.3444 42.1839 5.95508 42.5225 5.65039C42.8779 5.32878 43.2926 5.16797 43.7666 5.16797C44.7822 5.2526 45.3324 5.80273 45.417 6.81836V7.93555V11.4395C45.4508 11.9642 45.6455 12.4043 46.001 12.7598C46.3734 13.0983 46.7796 13.3691 47.2197 13.5723C47.6768 13.7754 48.1423 13.9277 48.6162 14.0293C49.1071 14.1309 49.598 14.1816 50.0889 14.1816C50.5798 14.1816 51.0622 14.1309 51.5361 14.0293C52.027 13.9277 52.4925 13.7754 52.9326 13.5723C53.3896 13.3691 53.7959 13.0983 54.1514 12.7598C54.5238 12.4043 54.7269 11.9642 54.7607 11.4395V7.93555V6.81836C54.7607 6.3444 54.93 5.95508 55.2686 5.65039C55.624 5.32878 56.0387 5.16797 56.5127 5.16797C57.5283 5.2526 58.0869 5.80273 58.1885 6.81836V11.1602V12.2266C58.1377 13.1406 57.8076 13.9277 57.1982 14.5879C56.6058 15.248 55.9202 15.7812 55.1416 16.1875C54.363 16.5768 53.542 16.873 52.6787 17.0762C51.8324 17.2793 50.9691 17.3809 50.0889 17.3809ZM61.9717 8.62109C62.2933 7.80859 62.835 7.08073 63.5967 6.4375C64.3753 5.77734 65.3571 5.4388 66.542 5.42188H76.0889C76.5628 5.42188 76.9606 5.59115 77.2822 5.92969C77.6208 6.2513 77.79 6.64909 77.79 7.12305C77.79 7.59701 77.6208 8.00326 77.2822 8.3418C76.9606 8.66341 76.5628 8.82422 76.0889 8.82422H66.4404C66.1188 8.82422 65.8395 8.95964 65.6025 9.23047C65.3656 9.48438 65.1794 9.78906 65.0439 10.1445C64.9255 10.5 64.8662 10.8385 64.8662 11.1602V15.6035C64.7646 16.6191 64.2061 17.1693 63.1904 17.2539C62.7165 17.2539 62.3018 17.1016 61.9463 16.7969C61.6077 16.4753 61.4385 16.0775 61.4385 15.6035V11.1855H61.4639C61.4639 10.3053 61.6331 9.45052 61.9717 8.62109ZM107.548 9.48438C107.548 9.0612 107.328 8.84115 106.888 8.82422H98.001C97.6794 8.84115 97.4001 8.98503 97.1631 9.25586C96.9261 9.50977 96.7484 9.81445 96.6299 10.1699C96.5283 10.5085 96.4775 10.8555 96.4775 11.2109C96.4775 11.5495 96.5283 11.8965 96.6299 12.252C96.7484 12.5905 96.9261 12.8952 97.1631 13.166C97.4001 13.4199 97.6794 13.5469 98.001 13.5469H104.501C104.975 13.5469 105.373 13.7161 105.694 14.0547C106.033 14.3763 106.202 14.7741 106.202 15.248C106.202 15.722 106.033 16.1198 105.694 16.4414C105.373 16.7799 104.975 16.9492 104.501 16.9492H98.1025C96.9176 16.9323 95.9359 16.6022 95.1572 15.959C94.3955 15.2988 93.8454 14.5625 93.5068 13.75C93.1852 12.9206 93.0244 12.0658 93.0244 11.1855C93.0244 10.3392 93.1937 9.50977 93.5322 8.69727C93.8708 7.86784 94.4209 7.13151 95.1826 6.48828C95.9443 5.82812 97.07 5.47266 98.5596 5.42188H109.224C109.698 5.42188 110.104 5.58268 110.442 5.9043C110.781 6.20898 110.959 6.59831 110.976 7.07227V15.0957C110.976 16.4499 110.789 17.7279 110.417 18.9297C110.078 19.9961 109.52 20.8932 108.741 21.6211C107.979 22.3659 107.006 22.7721 105.821 22.8398H97.0361C96.5791 22.8229 96.1898 22.6536 95.8682 22.332C95.5635 22.0273 95.4027 21.6465 95.3857 21.1895C95.3857 20.7155 95.5381 20.3092 95.8428 19.9707C96.1644 19.6322 96.5622 19.4544 97.0361 19.4375H104.958C105.601 19.4036 106.134 19.1582 106.558 18.7012C106.981 18.2441 107.252 17.7109 107.37 17.1016C107.489 16.4922 107.548 15.7051 107.548 14.7402V9.48438ZM122.503 17.3809C121.623 17.3809 120.751 17.2793 119.888 17.0762C119.041 16.873 118.229 16.5768 117.45 16.1875C116.672 15.7812 115.986 15.248 115.394 14.5879C114.801 13.9277 114.479 13.1406 114.429 12.2266V11.1602V6.81836C114.429 6.3444 114.598 5.95508 114.937 5.65039C115.292 5.32878 115.707 5.16797 116.181 5.16797C117.196 5.2526 117.746 5.80273 117.831 6.81836V7.93555V11.4395C117.865 11.9642 118.06 12.4043 118.415 12.7598C118.787 13.0983 119.194 13.3691 119.634 13.5723C120.091 13.7754 120.556 13.9277 121.03 14.0293C121.521 14.1309 122.012 14.1816 122.503 14.1816C122.994 14.1816 123.476 14.1309 123.95 14.0293C124.441 13.9277 124.907 13.7754 125.347 13.5723C125.804 13.3691 126.21 13.0983 126.565 12.7598C126.938 12.4043 127.141 11.9642 127.175 11.4395V7.93555V6.81836C127.175 6.3444 127.344 5.95508 127.683 5.65039C128.038 5.32878 128.453 5.16797 128.927 5.16797C129.942 5.2526 130.501 5.80273 130.603 6.81836V11.1602V12.2266C130.552 13.1406 130.222 13.9277 129.612 14.5879C129.02 15.248 128.334 15.7812 127.556 16.1875C126.777 16.5768 125.956 16.873 125.093 17.0762C124.246 17.2793 123.383 17.3809 122.503 17.3809ZM135.604 5.16797C136.062 5.1849 136.451 5.35417 136.772 5.67578C137.094 5.98047 137.263 6.36133 137.28 6.81836V15.6035C137.179 16.6191 136.62 17.1693 135.604 17.2539C135.131 17.2539 134.716 17.1016 134.36 16.7969C134.022 16.4753 133.853 16.0775 133.853 15.6035V6.81836C133.869 6.3444 134.047 5.95508 134.386 5.65039C134.724 5.32878 135.131 5.16797 135.604 5.16797ZM133.472 1.86719C133.472 1.39323 133.675 0.986979 134.081 0.648438C134.487 0.309896 134.978 0.140625 135.554 0.140625C136.129 0.140625 136.62 0.309896 137.026 0.648438C137.433 0.986979 137.636 1.39323 137.636 1.86719C137.636 2.35807 137.433 2.77279 137.026 3.11133C136.62 3.44987 136.129 3.61914 135.554 3.61914C134.978 3.61914 134.487 3.44987 134.081 3.11133C133.675 2.77279 133.472 2.35807 133.472 1.86719ZM154.521 3.21289C154.622 2.19727 155.181 1.64714 156.196 1.5625C156.67 1.5625 157.076 1.72331 157.415 2.04492C157.771 2.34961 157.948 2.73893 157.948 3.21289V15.2988C157.931 15.7728 157.754 16.1706 157.415 16.4922C157.076 16.7969 156.67 16.9492 156.196 16.9492H145.532C144.043 16.8984 142.917 16.5514 142.155 15.9082C141.394 15.248 140.843 14.5117 140.505 13.6992C140.166 12.8698 139.997 12.0319 139.997 11.1855C139.997 10.3053 140.158 9.45898 140.479 8.64648C140.818 7.81706 141.368 7.08073 142.13 6.4375C142.909 5.77734 143.89 5.4388 145.075 5.42188H151.474C151.948 5.42188 152.345 5.59115 152.667 5.92969C153.006 6.2513 153.175 6.64909 153.175 7.12305C153.175 7.59701 153.006 8.00326 152.667 8.3418C152.345 8.66341 151.948 8.82422 151.474 8.82422H144.974C144.652 8.82422 144.373 8.95964 144.136 9.23047C143.899 9.48438 143.721 9.78906 143.603 10.1445C143.501 10.4831 143.45 10.8216 143.45 11.1602C143.45 11.5156 143.501 11.8711 143.603 12.2266C143.721 12.5651 143.899 12.8698 144.136 13.1406C144.373 13.3945 144.652 13.5299 144.974 13.5469H153.86C154.3 13.5299 154.521 13.3099 154.521 12.8867V3.21289ZM166.505 16.9492C165.015 16.8984 163.89 16.5514 163.128 15.9082C162.366 15.248 161.816 14.5117 161.478 13.6992C161.139 12.8698 160.97 12.0319 160.97 11.1855C160.97 10.3053 161.131 9.45898 161.452 8.64648C161.791 7.81706 162.341 7.08073 163.103 6.4375C163.881 5.77734 164.863 5.4388 166.048 5.42188H175.696C176.17 5.42188 176.568 5.58268 176.89 5.9043C177.228 6.20898 177.397 6.58138 177.397 7.02148C177.397 7.47852 177.228 7.86784 176.89 8.18945C176.568 8.49414 176.17 8.64648 175.696 8.64648H166.2C165.828 8.64648 165.498 8.77344 165.21 9.02734C164.939 9.28125 164.736 9.61133 164.601 10.0176C164.482 10.4238 164.423 10.8216 164.423 11.2109C164.423 11.6341 164.482 12.0488 164.601 12.4551C164.736 12.8613 164.939 13.1914 165.21 13.4453C165.498 13.6823 165.828 13.8092 166.2 13.8262H175.696C176.17 13.8262 176.568 13.9785 176.89 14.2832C177.228 14.5879 177.397 14.9518 177.397 15.375C177.397 15.8151 177.228 16.1875 176.89 16.4922C176.568 16.7969 176.17 16.9492 175.696 16.9492H166.505ZM177.093 11.1348C177.093 11.4564 176.949 11.7357 176.661 11.9727C176.407 12.1927 176.086 12.3027 175.696 12.3027H167.394C167.004 12.3027 166.674 12.1927 166.403 11.9727C166.132 11.7357 165.997 11.4564 165.997 11.1348C165.997 10.8301 166.132 10.5592 166.403 10.3223C166.674 10.1022 167.004 9.99219 167.394 9.99219H175.696C176.086 9.99219 176.416 10.1107 176.687 10.3477C176.957 10.5677 177.093 10.8301 177.093 11.1348Z" fill="white"/>
</svg>
